<?xml version="1.0" encoding="utf-8"?>
<!-- Generator: Adobe Illustrator 23.1.1, SVG Export Plug-In . SVG Version: 6.00 Build 0)  -->
<svg width="449" height="136" viewBox="0 0 449 136" fill="none" xmlns="http://www.w3.org/2000/svg">
	<g clip-path="url(#clip0_325_27)">
	<path d="M446.82 39.7H438.94C437.89 39.7 436.98 40.32 436.57 41.21L426.57 65.29C426.22 66.12 425.39 66.7 424.44 66.7C423.48 66.7 422.66 66.12 422.31 65.29L412.31 41.21C411.89 40.32 410.99 39.7 409.94 39.7H369.36C368.58 39.7 367.96 40.33 367.96 41.1V48.38C367.96 49.15 368.58 49.78 369.36 49.78H381.83V76.11C381.83 76.88 382.46 77.51 383.23 77.51H390.5C391.27 77.51 391.9 76.88 391.9 76.11V49.78H404.45L414.26 71.35C416.18 75.01 420.02 77.51 424.44 77.51C428.86 77.51 432.7 75.01 434.62 71.35L448.05 41.75C448.15 41.56 448.21 41.33 448.21 41.1C448.21 40.33 447.58 39.7 446.81 39.7H446.82Z" fill="white"/>
	<path d="M94.81 74.85C94.81 68.31 91.12 62.64 85.71 59.8L41.97 39.95C41.68 39.8 41.36 39.71 41.01 39.71C39.87 39.71 38.94 40.64 38.94 41.78V53.42C38.94 54.97 39.86 56.31 41.18 56.92L76.76 71.7C77.99 72.22 78.85 73.43 78.85 74.85C78.85 76.27 77.99 77.49 76.76 78L41.18 92.78C39.86 93.39 38.94 94.73 38.94 96.28V107.92C38.94 109.06 39.87 109.99 41.01 109.99C41.36 109.99 41.69 109.9 41.97 109.75L85.71 89.9C91.12 87.06 94.81 81.39 94.81 74.85Z" fill="white"/>
	<path d="M120.46 74.85C120.46 108.11 93.49 135.08 60.23 135.08C26.97 135.08 0 108.11 0 74.85C0 41.59 26.97 14.61 60.23 14.61C93.49 14.61 120.46 41.58 120.46 74.85ZM60.23 24.95C32.41 24.95 9.85 47.29 9.85 74.85C9.85 102.41 32.41 124.75 60.23 124.75C88.05 124.75 110.61 102.4 110.61 74.85C110.61 47.3 88.05 24.95 60.23 24.95Z" fill="white"/>
	<path d="M246.61 39.75H261.42C262.85 39.75 264.02 40.91 264.02 42.35V107.36C264.02 108.79 262.86 109.96 261.42 109.96H246.61C245.18 109.96 244.01 108.8 244.01 107.36V42.35C244.01 40.92 245.17 39.75 246.61 39.75Z" fill="white"/>
	<path d="M184.67 109.95C192.88 109.95 200 105.32 203.57 98.52L228.52 43.56C228.71 43.2 228.82 42.78 228.82 42.35C228.82 40.92 227.66 39.75 226.22 39.75H211.59C209.64 39.75 207.96 40.9 207.19 42.56L188.62 87.26C187.97 88.8 186.44 89.88 184.66 89.88C182.88 89.88 181.36 88.8 180.7 87.26L162.13 42.56C161.36 40.9 159.68 39.75 157.73 39.75H143.1C141.67 39.75 140.5 40.92 140.5 42.35C140.5 42.79 140.61 43.2 140.8 43.56L165.75 98.52C169.32 105.32 176.45 109.95 184.66 109.95H184.67Z" fill="white"/>
	<path d="M266.01 12.54C266.01 19.16 260.64 24.53 254.01 24.53C247.38 24.53 242.02 19.16 242.02 12.54C242.02 5.91999 247.39 0.539993 254.01 0.539993C260.63 0.539993 266.01 5.90999 266.01 12.54Z" fill="white"/>
	<path d="M319.15 109.95C340.39 109.95 356.39 96.58 356.39 80.1V42.34C356.39 40.91 355.23 39.74 353.79 39.74H338.97C337.53 39.74 336.37 40.91 336.37 42.34L336.35 76.58C336.35 83.95 328.65 89.93 319.15 89.93C309.65 89.93 301.94 83.95 301.94 76.58L301.92 42.34C301.92 40.91 300.76 39.74 299.32 39.74H284.5C283.07 39.74 281.9 40.91 281.9 42.34V80.1C281.9 96.59 297.89 109.95 319.14 109.95H319.15Z" fill="white"/>
	</g>
	<defs>
		<clipPath id="clip0_325_27">
		<rect width="448.22" height="134.54" fill="white" transform="translate(0 0.539993)"/>
		</clipPath>
	</defs>
</svg>
